<?xml version="1.0" encoding="UTF-8" standalone="no"?>
<!-- Created with Inkscape (http://www.inkscape.org/) -->

<svg
   xmlns:dc="http://purl.org/dc/elements/1.1/"
   xmlns:cc="http://creativecommons.org/ns#"
   xmlns:rdf="http://www.w3.org/1999/02/22-rdf-syntax-ns#"
   xmlns:svg="http://www.w3.org/2000/svg"
   xmlns="http://www.w3.org/2000/svg"
   xmlns:sodipodi="http://sodipodi.sourceforge.net/DTD/sodipodi-0.dtd"
   xmlns:inkscape="http://www.inkscape.org/namespaces/inkscape"
   width="32"
   height="32"
   viewBox="0 0 8.4666661 8.4666669"
   id="svg2"
   version="1.1"
   inkscape:version="0.91+devel+osxmenu r12922"
   sodipodi:docname="logo.svg"
   inkscape:export-filename="/Users/tbeuzen/Documents/Projects/website/tomasbeuzen/static/img/icon-32.png"
   inkscape:export-xdpi="96"
   inkscape:export-ydpi="96">
  <defs
     id="defs4" />
  <sodipodi:namedview
     id="base"
     pagecolor="#ffffff"
     bordercolor="#666666"
     borderopacity="1.0"
     inkscape:pageopacity="0.0"
     inkscape:pageshadow="2"
     inkscape:zoom="3.959798"
     inkscape:cx="19.802615"
     inkscape:cy="12.999166"
     inkscape:document-units="mm"
     inkscape:current-layer="layer1"
     showgrid="false"
     units="px"
     showguides="false"
     inkscape:window-width="1080"
     inkscape:window-height="675"
     inkscape:window-x="173"
     inkscape:window-y="134"
     inkscape:window-maximized="0" />
  <metadata
     id="metadata7">
    <rdf:RDF>
      <cc:Work
         rdf:about="">
        <dc:format>image/svg+xml</dc:format>
        <dc:type
           rdf:resource="http://purl.org/dc/dcmitype/StillImage" />
        <dc:title></dc:title>
      </cc:Work>
    </rdf:RDF>
  </metadata>
  <g
     inkscape:label="Layer 1"
     inkscape:groupmode="layer"
     id="layer1"
     transform="translate(0,-288.53332)">
    <path
       style="fill:#5599ff;stroke-width:0.06714455;stroke:none;stroke-opacity:1"
       d="m 2.1597207,296.23498 -0.043258,-2.83464 -0.026598,-2.85885 c -8.336e-4,-0.0889 -0.5812112,-0.0762 -1.034529,-0.0762 -0.69508334,0 -0.86138728,0.001 -0.86138728,0.001 l -0.002811,-1.17696 c 0,0 0.71543397,-0.002 3.27753288,0.0132 l 3.2101936,0.021 c 0.079769,4e-4 0.1593757,0.0376 0.2390642,0.0564 0.4430136,0.28111 0.8663182,0.91122 0.9876576,1.41299 0.1185781,0.49031 0.081566,0.87228 -0.1343657,1.38691 -0.1970578,0.41228 -0.1499578,0.35096 0.100451,0.69295 0.4671337,0.63797 0.5314954,1.40318 0.1802079,2.14257 -0.1990624,0.419 -0.4427471,0.66899 -0.886472,0.9094 -0.2732956,0.14806 -0.423598,0.18772 -1.5434761,0.19474 l -1.3318983,0.009 0,-1.24729 1.1782382,0.001 c 1.2273281,10e-4 1.4257597,-0.0485 1.6596059,-0.4059 0.2196598,-0.33569 0.1390582,-0.72161 -0.2081883,-0.99678 -0.1620466,-0.12843 -0.2965516,-0.14342 -1.3768348,-0.14283 l -1.3069824,8.3e-4 0,-1.24681 1.0429826,-0.006 c 1.1024012,-0.006 1.313572,-0.0555 1.5428209,-0.4059 0.1567136,-0.2395 0.1662429,-0.407 0.03986,-0.7008 -0.1890356,-0.43942 -0.3295594,-0.47397 -2.0198873,-0.49651 -0.9377389,-0.012 -1.7138651,-0.0285 -1.7147232,0.0524 l -0.030619,2.89152 -0.030619,2.81865 -0.9059669,-0.009 z"
       id="path4268-5-7"
       inkscape:connector-curvature="0"
       sodipodi:nodetypes="ccscccsscsccsssccssssccssssscccc" />
  </g>
</svg>
