<?xml version="1.0" encoding="UTF-8" standalone="no"?>
<!-- Created with Inkscape (http://www.inkscape.org/) -->

<svg
   xmlns:dc="http://purl.org/dc/elements/1.1/"
   xmlns:cc="http://creativecommons.org/ns#"
   xmlns:rdf="http://www.w3.org/1999/02/22-rdf-syntax-ns#"
   xmlns:svg="http://www.w3.org/2000/svg"
   xmlns="http://www.w3.org/2000/svg"
   xmlns:sodipodi="http://sodipodi.sourceforge.net/DTD/sodipodi-0.dtd"
   xmlns:inkscape="http://www.inkscape.org/namespaces/inkscape"
   width="183.03101mm"
   height="135.30299mm"
   viewBox="0 0 183.03101 135.30299"
   id="svg2"
   version="1.1"
   inkscape:version="0.91+devel+osxmenu r12922"
   sodipodi:docname="nrl-logo.svg"
   inkscape:export-filename="/Users/tbeuzen/Documents/Projects/website/tomasbeuzen/content/project/nrl-prediction/featured.png"
   inkscape:export-xdpi="150"
   inkscape:export-ydpi="150">
  <defs
     id="defs4" />
  <sodipodi:namedview
     id="base"
     pagecolor="#ffffff"
     bordercolor="#666666"
     borderopacity="1.0"
     inkscape:pageopacity="1"
     inkscape:pageshadow="2"
     inkscape:zoom="0.7"
     inkscape:cx="361.62441"
     inkscape:cy="262.45104"
     inkscape:document-units="mm"
     inkscape:current-layer="layer1"
     showgrid="false"
     inkscape:window-width="1280"
     inkscape:window-height="681"
     inkscape:window-x="0"
     inkscape:window-y="23"
     inkscape:window-maximized="0" />
  <metadata
     id="metadata7">
    <rdf:RDF>
      <cc:Work
         rdf:about="">
        <dc:format>image/svg+xml</dc:format>
        <dc:type
           rdf:resource="http://purl.org/dc/dcmitype/StillImage" />
        <dc:title></dc:title>
      </cc:Work>
    </rdf:RDF>
  </metadata>
  <g
     inkscape:label="Layer 1"
     inkscape:groupmode="layer"
     id="layer1"
     transform="translate(0,-161.69665)">
    <path
       style="fill:#000000;stroke-width:0.48552412"
       d="m 76.717754,287.31468 c -8.138729,-5.18467 -15.589648,-10.26988 -16.557596,-11.30044 -2.374697,-2.52831 -4.372884,-7.21242 -4.931141,-11.55945 -0.262851,-2.04676 -0.46217,-17.29411 -0.467424,-35.75637 l -0.0091,-32.18793 1.040461,-0.28369 c 0.572255,-0.15607 4.786129,-0.69025 9.364163,-1.18716 11.781717,-1.27882 40.935053,-1.27882 52.716763,0 4.57804,0.49691 8.7919,1.03115 9.36417,1.18716 l 1.04046,0.28369 -0.009,32.18793 c -0.005,18.46226 -0.20458,33.70961 -0.46743,35.75637 -0.59387,4.62428 -2.68953,9.33743 -5.25811,11.8254 -1.1007,1.06618 -8.11617,5.82478 -15.58993,10.57466 -7.47377,4.74989 -14.004853,8.9175 -14.513528,9.26134 -0.818473,0.55326 -2.626923,-0.45912 -15.722546,-8.80151 z m 29.150586,-2.50091 c 11.29313,-7.19479 14.45643,-9.44786 16.10799,-11.47286 3.90586,-4.78904 3.73015,-2.92997 3.8847,-41.103 l 0.13667,-33.74618 -1.51856,-0.27245 c -8.65327,-1.55252 -30.703513,-2.48433 -43.574106,-1.84141 -10.363015,0.51766 -19.261121,1.24525 -22.353157,1.82777 l -1.518547,0.28609 0.136605,33.74618 c 0.155935,38.52065 -0.05425,36.46203 4.229143,41.42136 1.904618,2.20519 5.053016,4.44838 16.012384,11.40864 7.502893,4.76504 13.813181,8.67163 14.022854,8.68131 0.209681,0.01 6.705022,-4.01129 14.434094,-8.93545 z m -28.456945,-2.98174 c -12.365025,-7.95809 -13.78231,-9.00856 -15.145032,-11.2253 -1.293712,-2.10448 -2.509314,-5.3239 -2.18584,-5.78903 0.05617,-0.0808 6.735827,4.0709 14.843672,9.22597 8.107845,5.15505 15.177081,9.62585 15.709412,9.93511 0.841883,0.48909 2.998401,-0.72845 16.566733,-9.3534 8.57937,-5.45363 15.67267,-9.91571 15.76285,-9.91571 0.0902,0 -0.0201,0.70752 -0.24506,1.57229 -0.70742,2.71922 -2.6383,5.84067 -4.46824,7.22335 -2.40908,1.82025 -26.561823,17.21474 -26.91426,17.15463 -0.155443,-0.0266 -6.421342,-3.99909 -13.924235,-8.82791 z m -1.618496,-19.12417 -15.722547,-10.0335 -0.137635,-3.1565 -0.137636,-3.1565 2.680984,1.7307 c 14.267604,9.21031 28.664473,18.26614 29.039365,18.26614 0.374899,0 14.77176,-9.05583 29.03937,-18.26614 l 2.68099,-1.7307 -0.13756,3.16073 -0.13754,3.16076 -15.02891,9.59977 c -8.265892,5.27987 -15.341037,9.79303 -15.722546,10.02925 -0.492866,0.30519 -5.24444,-2.47464 -16.416183,-9.60401 z m -0.346822,-18.22979 -15.606938,-9.97978 0,-16.72083 c 0,-15.4859 0.05978,-16.73999 0.809249,-16.98033 2.6227,-0.84099 17.098199,-1.59325 30.635838,-1.59207 13.512454,8.5e-4 28.576964,0.7709 31.098274,1.58899 0.74942,0.24317 0.80924,1.49868 0.80924,16.98356 l 0,16.72096 -15.71055,10.00781 c -8.640815,5.5043 -15.872035,9.99514 -16.069368,9.97965 -0.197341,-0.0154 -7.381928,-4.51906 -15.965745,-10.00796 z m -3.483353,-21.54109 0.13075,-5.57876 3.150755,5.57876 3.150756,5.57873 2.282772,0 2.28277,0 0,-8.41126 0,-8.41128 5.446237,0 c 6.139961,0 7.501741,0.54198 7.501741,2.9856 0,1.95231 -0.79125,2.62192 -3.098266,2.62192 -1.90109,0 -1.988436,-0.0673 -1.988436,-1.52932 0,-1.51388 -0.02573,-1.52932 -2.543351,-1.52932 l -2.543358,0 0,7.13684 0,7.13682 2.543358,0 2.543351,0 0,-3.31353 c 0,-2.9404 0.101104,-3.31352 0.8978,-3.31352 0.541335,0 1.872464,1.302 3.352604,3.27927 l 2.454795,3.27926 3.154908,0.0343 3.1549,0.0343 -1.07397,-1.46278 c -0.59069,-0.80451 -1.87616,-2.52063 -2.856596,-3.81361 l -1.782599,-2.35086 1.18617,-1.554 c 2.908695,-3.81074 1.865935,-9.22336 -2.165686,-11.24125 -1.664038,-0.83287 -3.087436,-0.96716 -10.353897,-0.97682 l -8.424632,-0.0115 -0.130278,5.85159 -0.130278,5.85158 -3.236994,-5.86999 -3.236994,-5.87002 -2.312139,0.14585 -2.31214,0.14585 -0.124982,10.57782 -0.124983,10.57781 2.537589,0 2.537591,0 0.130749,-5.57874 z m 45.911096,3.02987 0,-2.29399 -4.72821,-0.14508 -4.72823,-0.14508 -0.12723,-8.01125 -0.12728,-8.01127 -2.42775,-0.15413 -2.42773,-0.15414 0,8.7227 0,8.72268 1.47524,2.0237 1.47526,2.02372 5.80797,-0.142 5.808,-0.142 0,-2.29397 z"
       id="path4271"
       inkscape:connector-curvature="0" />
    <path
       style="fill:#000000;stroke-width:0.26458332"
       d=""
       id="path4267"
       inkscape:connector-curvature="0" />
    <path
       style="fill:#000000;stroke-width:0.26458332"
       d=""
       id="path4265"
       inkscape:connector-curvature="0" />
    <text
       xml:space="preserve"
       style="font-style:normal;font-variant:normal;font-weight:normal;font-stretch:normal;font-size:10.58333302px;line-height:125%;font-family:'SF Pro Display';-inkscape-font-specification:'SF Pro Display';letter-spacing:0px;word-spacing:0px;fill:#000000;fill-opacity:1;stroke:#000000;stroke-width:0.30000001;stroke-linecap:butt;stroke-linejoin:miter;stroke-miterlimit:4;stroke-dasharray:none;stroke-opacity:1"
       x="9.8378038"
       y="184.12161"
       id="text4798"
       sodipodi:linespacing="125%"><tspan
         sodipodi:role="line"
         id="tspan4800"
         x="9.8378038"
         y="184.12161"
         style="font-style:normal;font-variant:normal;font-weight:normal;font-stretch:normal;font-size:16.93333244px;font-family:'Jersey M54';-inkscape-font-specification:'Jersey M54';fill:#000000;fill-opacity:1;stroke:#000000;stroke-width:0.30000001;stroke-miterlimit:4;stroke-dasharray:none;stroke-opacity:1"
         transform="translate(7.329783)">National Rugby League</tspan></text>
  </g>
</svg>
