<?xml version="1.0" encoding="UTF-8" standalone="no"?>
<!-- Generator: Adobe Illustrator 20.0.0, SVG Export Plug-In . SVG Version: 6.00 Build 0)  -->

<svg
   xmlns:dc="http://purl.org/dc/elements/1.1/"
   xmlns:cc="http://creativecommons.org/ns#"
   xmlns:rdf="http://www.w3.org/1999/02/22-rdf-syntax-ns#"
   xmlns:svg="http://www.w3.org/2000/svg"
   xmlns="http://www.w3.org/2000/svg"
   xmlns:sodipodi="http://sodipodi.sourceforge.net/DTD/sodipodi-0.dtd"
   xmlns:inkscape="http://www.inkscape.org/namespaces/inkscape"
   version="1.1"
   x="0px"
   y="0px"
   viewBox="0 0 37.795277 37.795277"
   xml:space="preserve"
   id="svg4141"
   inkscape:version="0.91+devel+osxmenu r12922"
   sodipodi:docname="google-scholar.svg"
   width="37.795277"
   height="37.795277"><metadata
     id="metadata4155"><rdf:RDF><cc:Work
         rdf:about=""><dc:format>image/svg+xml</dc:format><dc:type
           rdf:resource="http://purl.org/dc/dcmitype/StillImage" /><dc:title /></cc:Work></rdf:RDF></metadata><defs
     id="defs4153" /><sodipodi:namedview
     pagecolor="#ffffff"
     bordercolor="#666666"
     borderopacity="1"
     objecttolerance="10"
     gridtolerance="10"
     guidetolerance="10"
     inkscape:pageopacity="0"
     inkscape:pageshadow="2"
     inkscape:window-width="1179"
     inkscape:window-height="702"
     id="namedview4151"
     showgrid="false"
     inkscape:zoom="9.44"
     inkscape:cx="-6.0483765"
     inkscape:cy="17.671872"
     inkscape:window-x="0"
     inkscape:window-y="23"
     inkscape:window-maximized="0"
     inkscape:current-layer="svg4141"
     fit-margin-top="0"
     fit-margin-left="0"
     fit-margin-right="0"
     fit-margin-bottom="0" /><style
     type="text/css"
     id="style4143">
	.st0{fill:#1DA1F2;}
	.st1{fill:#FFFFFF;}
</style><g
     id="Dark_Blue"
     style="fill:#6294ea;fill-opacity:1"
     transform="scale(0.09448819)"><path
       inkscape:connector-curvature="0"
       class="st0"
       d="M 350,400 50,400 C 22.4,400 0,377.6 0,350 L 0,50 C 0,22.4 22.4,0 50,0 l 300,0 c 27.6,0 50,22.4 50,50 l 0,300 c 0,27.6 -22.4,50 -50,50 z"
       id="path4146"
       style="fill:#6294ea;fill-opacity:1" /></g><path
     style="fill:#ffffff;stroke-width:0.13232121"
     d="M 16.188446,33.942185 C 13.420844,33.681135 11.271873,32.515677 10.289834,30.743158 9.9386263,30.10925 9.9031873,29.930073 9.9031873,28.788234 c 0,-1.107525 0.04562,-1.35578 0.3832957,-2.087045 1.012361,-2.192184 3.687573,-3.602108 7.655222,-4.034528 0.782345,-0.08527 1.422451,-0.202823 1.422451,-0.261227 0,-0.05838 -0.163746,-0.35808 -0.363886,-0.665936 -0.330396,-0.508226 -0.363878,-0.672364 -0.363878,-1.783764 l 0,-1.224025 -0.736546,5.9e-5 c -2.57209,1.97e-4 -4.601877,-1.16606 -5.622071,-3.230291 -0.371804,-0.752286 -0.489162,-1.17352 -0.549601,-1.972646 l -0.07685,-1.016104 -2.9242927,0 -2.924299,0 4.3650937,-4.3665998 4.3651,-4.366599 8.729809,0 8.729809,0 -0.756703,0.7646812 -0.756703,0.7646812 0,1.1474016 c 0,0.824616 0.05039,1.177166 0.179164,1.253214 0.44562,0.26319 0.48244,0.658895 0.48244,5.1852598 0,3.063686 -0.04771,4.606177 -0.149485,4.829478 -0.33484,0.734884 -1.483334,0.734884 -1.818168,0 -0.211566,-0.464338 -0.207889,-9.1728498 0.0039,-9.6380518 0.08446,-0.185368 0.20355,-0.337032 0.264643,-0.337032 0.06106,0 0.110538,-0.34238 0.109883,-0.760847 l -0.0013,-0.760846 -1.921709,1.931946 c -1.899648,1.9097658 -1.919891,1.9363498 -1.763227,2.3156208 0.08731,0.211351 0.160689,1.007708 0.163399,1.77305 0.0075,2.130469 -0.212705,2.586959 -2.180181,4.518695 -1.589848,1.560967 -1.838202,1.919727 -1.838202,2.655396 0,0.462865 0.549418,1.05098 2.569054,2.749998 1.407358,1.18394 2.085246,2.004675 2.431499,2.943874 0.389579,1.056694 0.458743,1.93758 0.236018,3.005792 -0.822051,3.942583 -5.403352,6.353788 -11.058709,5.820346 z m 4.456266,-1.585979 c 0.700611,-0.09274 1.342188,-0.286071 1.985533,-0.598292 1.480894,-0.718693 2.161471,-1.748672 2.156176,-3.263152 -0.0052,-1.485664 -0.666349,-2.436309 -2.79848,-4.02382 l -1.184273,-0.881777 -1.480606,0.07831 c -2.328357,0.123156 -3.926647,0.656048 -5.036783,1.679338 -0.840789,0.775009 -1.141519,1.458302 -1.139928,2.590029 0.0033,2.354404 1.876068,4.002655 5.026914,4.424296 1.085549,0.14527 1.340683,0.144759 2.471447,-0.0052 z m 0.407636,-15.163807 c 0.382688,-0.183484 0.849172,-0.534712 1.036648,-0.7805 1.335303,-1.750673 0.689163,-5.766902 -1.273241,-7.9140788 -0.85821,-0.939022 -1.746347,-1.335964 -2.779533,-1.242278 -1.957764,0.177521 -3.080866,1.562975 -3.081755,3.8016518 -0.0013,3.103739 1.668533,5.963318 3.792011,6.494051 0.624791,0.156153 1.523473,0.0163 2.30587,-0.358846 z"
     id="path4162"
     inkscape:connector-curvature="0" /></svg>