<?xml version="1.0" encoding="UTF-8" standalone="no"?>
<!-- Created with Inkscape (http://www.inkscape.org/) -->

<svg
   xmlns:dc="http://purl.org/dc/elements/1.1/"
   xmlns:cc="http://creativecommons.org/ns#"
   xmlns:rdf="http://www.w3.org/1999/02/22-rdf-syntax-ns#"
   xmlns:svg="http://www.w3.org/2000/svg"
   xmlns="http://www.w3.org/2000/svg"
   xmlns:sodipodi="http://sodipodi.sourceforge.net/DTD/sodipodi-0.dtd"
   xmlns:inkscape="http://www.inkscape.org/namespaces/inkscape"
   width="9.999959mm"
   height="9.9861803mm"
   viewBox="0 0 9.9999592 9.9861802"
   id="svg4157"
   version="1.1"
   inkscape:version="0.91+devel+osxmenu r12922"
   sodipodi:docname="linkedin.svg">
  <defs
     id="defs4159" />
  <sodipodi:namedview
     id="base"
     pagecolor="#ffffff"
     bordercolor="#666666"
     borderopacity="1.0"
     inkscape:pageopacity="0.0"
     inkscape:pageshadow="2"
     inkscape:zoom="7.9195959"
     inkscape:cx="-15.562432"
     inkscape:cy="14.77104"
     inkscape:document-units="mm"
     inkscape:current-layer="layer1"
     showgrid="false"
     fit-margin-top="0"
     fit-margin-left="0"
     fit-margin-right="0"
     fit-margin-bottom="0"
     inkscape:window-width="1080"
     inkscape:window-height="675"
     inkscape:window-x="42"
     inkscape:window-y="32"
     inkscape:window-maximized="0" />
  <metadata
     id="metadata4162">
    <rdf:RDF>
      <cc:Work
         rdf:about="">
        <dc:format>image/svg+xml</dc:format>
        <dc:type
           rdf:resource="http://purl.org/dc/dcmitype/StillImage" />
        <dc:title />
      </cc:Work>
    </rdf:RDF>
  </metadata>
  <g
     inkscape:label="Layer 1"
     inkscape:groupmode="layer"
     id="layer1"
     transform="translate(-93.819751,-162.01772)">
    <g
       style="fill:#6294ea;fill-opacity:1"
       id="Dark_Blue"
       transform="matrix(0.025,0,0,0.025,93.81973,162.01081)">
      <path
         style="fill:#6294ea;fill-opacity:1"
         id="path4146"
         d="M 350,400 50,400 C 22.4,400 0,377.6 0,350 L 0,50 C 0,22.4 22.4,0 50,0 l 300,0 c 27.6,0 50,22.4 50,50 l 0,300 c 0,27.6 -22.4,50 -50,50 z"
         class="st0"
         inkscape:connector-curvature="0" />
    </g>
    <path
       style="fill:#ffffff;fill-opacity:1;stroke-width:0.025"
       d="m 95.076812,162.01061 c -0.0241,0 -0.0465,0.006 -0.0703,0.007 l 3.82044,0 3.820438,0 c -0.0239,-0.001 -0.0466,-0.007 -0.0708,-0.007 l -7.499798,0 z m 0.96893,1.36581 c -0.4883,0 -0.86145,0.37206 -0.86145,0.85886 0,0.38558 0.23457,0.71168 0.5948,0.82683 0.14592,0.0466 0.37882,0.0466 0.5271,5.1e-4 0.6173,-0.19213 0.80756,-0.97476 0.3483,-1.43402 -0.17293,-0.17293 -0.36414,-0.25218 -0.60875,-0.25218 z m 4.393528,2.25671 c -0.33211,0.0191 -0.601761,0.11742 -0.863001,0.30903 -0.12015,0.0881 -0.29016,0.26732 -0.3638,0.38344 l -0.0574,0.0909 0,-0.33125 0,-0.33176 -0.721397,0 -0.72089,0 0,2.39727 0,2.39675 0.74828,0 0.748267,0 0.007,-1.3901 -5.2e-4,0 c 0.008,-1.54569 0.006,-1.52416 0.1354,-1.78697 0.0846,-0.17188 0.22251,-0.30137 0.38705,-0.3638 0.10241,-0.0389 0.15117,-0.045 0.353471,-0.045 0.22794,0 0.23798,0.002 0.36122,0.0625 0.20811,0.10247 0.32118,0.28169 0.3793,0.60203 0.02,0.11001 0.0253,0.44203 0.0258,1.53117 l 5.2e-4,1.3901 0.75034,0 0.75034,0 -0.007,-1.64331 c -0.007,-1.58841 -0.009,-1.65028 -0.0476,-1.8557 -0.0886,-0.46586 -0.21416,-0.73629 -0.45268,-0.9772 -0.26385,-0.26646 -0.56482,-0.38945 -1.0573,-0.4315 -0.12661,-0.0108 -0.24432,-0.0131 -0.35502,-0.007 z m -5.142318,0.12041 0,2.39727 0,2.39675 0.74879,0 0.74931,0 0,-2.39675 0,-2.39727 -0.74931,0 -0.74879,0 z m -0.3452,6.24458 c 0.0418,0.004 0.0822,0.0129 0.12506,0.0129 l 7.499798,0 c 0.038,0 0.074,-0.008 0.1111,-0.0114 l -3.832838,0.003 c -2.21278,0.002 -3.31084,7.3e-4 -3.90312,-0.005 z"
       id="path4747"
       inkscape:connector-curvature="0" />
  </g>
  <style
     id="style4143"
     type="text/css">
	.st0{fill:#1DA1F2;}
	.st1{fill:#FFFFFF;}
</style>
</svg>
