<?xml version="1.0" encoding="UTF-8" standalone="no"?>
<!-- Generator: Adobe Illustrator 19.0.0, SVG Export Plug-In . SVG Version: 6.00 Build 0)  -->

<svg
   xmlns:dc="http://purl.org/dc/elements/1.1/"
   xmlns:cc="http://creativecommons.org/ns#"
   xmlns:rdf="http://www.w3.org/1999/02/22-rdf-syntax-ns#"
   xmlns:svg="http://www.w3.org/2000/svg"
   xmlns="http://www.w3.org/2000/svg"
   xmlns:sodipodi="http://sodipodi.sourceforge.net/DTD/sodipodi-0.dtd"
   xmlns:inkscape="http://www.inkscape.org/namespaces/inkscape"
   version="1.1"
   id="Capa_1"
   x="0px"
   y="0px"
   viewBox="0 0 37.795277 37.795277"
   xml:space="preserve"
   inkscape:version="0.91+devel+osxmenu r12922"
   sodipodi:docname="website.svg"
   width="37.795277"
   height="37.795277"><metadata
     id="metadata4961"><rdf:RDF><cc:Work
         rdf:about=""><dc:format>image/svg+xml</dc:format><dc:type
           rdf:resource="http://purl.org/dc/dcmitype/StillImage" /><dc:title /></cc:Work></rdf:RDF></metadata><defs
     id="defs4959" /><sodipodi:namedview
     pagecolor="#ffffff"
     bordercolor="#666666"
     borderopacity="1"
     objecttolerance="10"
     gridtolerance="10"
     guidetolerance="10"
     inkscape:pageopacity="0"
     inkscape:pageshadow="2"
     inkscape:window-width="1134"
     inkscape:window-height="673"
     id="namedview4957"
     showgrid="false"
     fit-margin-top="0"
     fit-margin-left="0"
     fit-margin-right="0"
     fit-margin-bottom="0"
     inkscape:zoom="7.7061224"
     inkscape:cx="5.704089"
     inkscape:cy="17.967548"
     inkscape:window-x="154"
     inkscape:window-y="40"
     inkscape:window-maximized="0"
     inkscape:current-layer="Capa_1" /><g
     style="fill:#6294ea;fill-opacity:1"
     id="Dark_Blue"
     transform="scale(0.09448819)"><path
       style="fill:#6294ea;fill-opacity:1"
       id="path4146"
       d="M 350,400 50,400 C 22.4,400 0,377.6 0,350 L 0,50 C 0,22.4 22.4,0 50,0 l 300,0 c 27.6,0 50,22.4 50,50 l 0,300 c 0,27.6 -22.4,50 -50,50 z"
       class="st0"
       inkscape:connector-curvature="0" /></g><g
     id="g4917"
     transform="matrix(0.06326531,0,0,0.06326531,3.397637,3.3976546)"
     style="fill:#ffffff;fill-opacity:1"><path
       d="M 445.06,154.352 C 410.115,77.368 333.233,26.827 248.63,25.425 160.869,23.971 81.118,74.518 44.916,154.355 19.6,157.729 0,179.451 0,205.675 l 0,78.647 c 0,26.227 19.604,47.95 44.924,51.321 35.593,78.523 113.525,128.962 200.076,128.962 86.558,0 164.489,-50.435 200.077,-128.963 C 470.396,332.271 490,310.548 490,284.322 l 0,-78.647 c 0,-26.232 -19.613,-47.959 -44.94,-51.323 z M 248.32,44.113 c 74.364,1.232 142.218,43.957 175.786,109.772 l -358.235,0 C 100.599,85.593 171.068,42.833 248.32,44.113 Z M 245,445.915 c -76.138,0 -144.986,-42.66 -179.12,-109.803 l 358.24,0 C 389.989,403.255 321.144,445.915 245,445.915 Z M 471.31,284.322 c 0,18.252 -14.848,33.1 -33.1,33.1 l -386.42,0 c -18.252,0 -33.1,-14.848 -33.1,-33.1 l 0,-78.647 c 0,-18.252 14.848,-33.1 33.1,-33.1 l 386.42,0 c 18.252,0 33.1,14.848 33.1,33.1 l 0,78.647 z"
       id="path4919"
       inkscape:connector-curvature="0"
       style="fill:#ffffff;fill-opacity:1" /><polygon
       points="147.667,290.094 175.2,209.152 151.728,209.152 135.931,258.049 120.134,209.152 98.323,209.152 82.526,258.049 66.729,209.152 43.403,209.152 70.936,290.094 94.252,290.094 109.302,246.011 124.195,290.094 "
       id="polygon4921"
       style="fill:#ffffff;fill-opacity:1" /><polygon
       points="283.369,290.094 310.903,209.152 287.431,209.152 271.634,258.049 255.837,209.152 234.026,209.152 218.228,258.049 202.432,209.152 179.106,209.152 206.639,290.094 229.955,290.094 245.005,246.011 259.898,290.094 "
       id="polygon4923"
       style="fill:#ffffff;fill-opacity:1" /><polygon
       points="419.072,290.094 446.605,209.152 423.134,209.152 407.337,258.049 391.539,209.152 369.729,209.152 353.931,258.049 338.135,209.152 314.809,209.152 342.342,290.094 365.658,290.094 380.708,246.011 395.601,290.094 "
       id="polygon4925"
       style="fill:#ffffff;fill-opacity:1" /></g><g
     id="g4927"
     transform="translate(-57.316584,-381.04541)" /><g
     id="g4929"
     transform="translate(-57.316584,-381.04541)" /><g
     id="g4931"
     transform="translate(-57.316584,-381.04541)" /><g
     id="g4933"
     transform="translate(-57.316584,-381.04541)" /><g
     id="g4935"
     transform="translate(-57.316584,-381.04541)" /><g
     id="g4937"
     transform="translate(-57.316584,-381.04541)" /><g
     id="g4939"
     transform="translate(-57.316584,-381.04541)" /><g
     id="g4941"
     transform="translate(-57.316584,-381.04541)" /><g
     id="g4943"
     transform="translate(-57.316584,-381.04541)" /><g
     id="g4945"
     transform="translate(-57.316584,-381.04541)" /><g
     id="g4947"
     transform="translate(-57.316584,-381.04541)" /><g
     id="g4949"
     transform="translate(-57.316584,-381.04541)" /><g
     id="g4951"
     transform="translate(-57.316584,-381.04541)" /><g
     id="g4953"
     transform="translate(-57.316584,-381.04541)" /><g
     id="g4955"
     transform="translate(-57.316584,-381.04541)" /><style
     id="style4143"
     type="text/css">
	.st0{fill:#1DA1F2;}
	.st1{fill:#FFFFFF;}
</style></svg>